<mxfile host="65bd71144e">
    <diagram id="Sz1KCL0XoJ6wrCBvusYt" name="Page-1">
        <mxGraphModel dx="407" dy="853" grid="1" gridSize="10" guides="1" tooltips="1" connect="1" arrows="1" fold="1" page="1" pageScale="1" pageWidth="827" pageHeight="1169" math="0" shadow="0">
            <root>
                <mxCell id="0"/>
                <mxCell id="1" parent="0"/>
                <mxCell id="79" value="" style="whiteSpace=wrap;html=1;rounded=1;shadow=1;glass=0;sketch=1;fontFamily=Comic Sans MS;fontColor=default;arcSize=9;" parent="1" vertex="1">
                    <mxGeometry x="30" y="40" width="560" height="340" as="geometry"/>
                </mxCell>
                <mxCell id="35" value="" style="edgeStyle=none;html=1;entryX=1;entryY=0.5;entryDx=0;entryDy=0;fontFamily=Comic Sans MS;shadow=1;sketch=1;" parent="1" source="33" target="43" edge="1">
                    <mxGeometry relative="1" as="geometry"/>
                </mxCell>
                <mxCell id="36" value="requests&lt;br&gt;/health" style="edgeLabel;html=1;align=center;verticalAlign=middle;resizable=0;points=[];fontFamily=Comic Sans MS;" parent="35" vertex="1" connectable="0">
                    <mxGeometry x="-0.2163" y="1" relative="1" as="geometry">
                        <mxPoint as="offset"/>
                    </mxGeometry>
                </mxCell>
                <mxCell id="33" value="&lt;br&gt;" style="shape=umlActor;verticalLabelPosition=bottom;verticalAlign=top;html=1;outlineConnect=0;fontFamily=Comic Sans MS;sketch=1;shadow=1;" parent="1" vertex="1">
                    <mxGeometry x="680" y="85" width="30" height="60" as="geometry"/>
                </mxCell>
                <mxCell id="34" value="WEB&lt;br&gt;profile" style="ellipse;whiteSpace=wrap;html=1;aspect=fixed;fontFamily=Comic Sans MS;sketch=1;shadow=1;" parent="1" vertex="1">
                    <mxGeometry x="540" y="40" width="50" height="50" as="geometry"/>
                </mxCell>
                <mxCell id="86" value="" style="edgeStyle=orthogonalEdgeStyle;curved=1;sketch=1;html=1;shadow=1;fontFamily=Comic Sans MS;fontColor=default;startArrow=none;startFill=0;endArrow=classic;endFill=1;" parent="1" source="43" target="52" edge="1">
                    <mxGeometry relative="1" as="geometry"/>
                </mxCell>
                <mxCell id="87" value="request data" style="edgeLabel;html=1;align=center;verticalAlign=middle;resizable=0;points=[];fontFamily=Comic Sans MS;fontColor=default;" parent="86" vertex="1" connectable="0">
                    <mxGeometry x="-0.214" relative="1" as="geometry">
                        <mxPoint as="offset"/>
                    </mxGeometry>
                </mxCell>
                <mxCell id="43" value="HealthEndpointHandler" style="whiteSpace=wrap;html=1;shadow=1;sketch=1;rounded=0;glass=0;fontFamily=Comic Sans MS;" parent="1" vertex="1">
                    <mxGeometry x="420" y="95" width="160" height="40" as="geometry"/>
                </mxCell>
                <mxCell id="67" value="" style="edgeStyle=orthogonalEdgeStyle;curved=1;sketch=1;html=1;shadow=1;fontFamily=Comic Sans MS;fontColor=default;startArrow=none;startFill=0;endArrow=classic;endFill=1;exitX=0;exitY=0.5;exitDx=0;exitDy=0;entryX=0.75;entryY=0;entryDx=0;entryDy=0;" parent="1" source="47" target="70" edge="1">
                    <mxGeometry relative="1" as="geometry">
                        <mxPoint x="110" y="350" as="targetPoint"/>
                    </mxGeometry>
                </mxCell>
                <mxCell id="73" value="registers" style="edgeLabel;html=1;align=center;verticalAlign=middle;resizable=0;points=[];fontFamily=Comic Sans MS;fontColor=default;" parent="67" vertex="1" connectable="0">
                    <mxGeometry x="-0.121" y="-6" relative="1" as="geometry">
                        <mxPoint x="21" y="-4" as="offset"/>
                    </mxGeometry>
                </mxCell>
                <mxCell id="47" value="HealthCheckVerticle 1" style="whiteSpace=wrap;html=1;shadow=1;sketch=1;rounded=0;glass=0;fontFamily=Comic Sans MS;" parent="1" vertex="1">
                    <mxGeometry x="160" y="320" width="160" height="40" as="geometry"/>
                </mxCell>
                <mxCell id="48" value="HealthCheckVerticle 2" style="whiteSpace=wrap;html=1;shadow=1;sketch=1;rounded=0;glass=0;fontFamily=Comic Sans MS;" parent="1" vertex="1">
                    <mxGeometry x="254" y="400" width="160" height="40" as="geometry"/>
                </mxCell>
                <mxCell id="49" value="HealthCheckVerticle 3" style="whiteSpace=wrap;html=1;shadow=1;sketch=1;rounded=0;glass=0;fontFamily=Comic Sans MS;" parent="1" vertex="1">
                    <mxGeometry x="380" y="470" width="160" height="40" as="geometry"/>
                </mxCell>
                <mxCell id="57" value="" style="edgeStyle=orthogonalEdgeStyle;sketch=1;html=1;shadow=1;fontFamily=Comic Sans MS;fontColor=default;curved=1;entryX=0.75;entryY=0;entryDx=0;entryDy=0;" parent="1" source="52" target="49" edge="1">
                    <mxGeometry relative="1" as="geometry">
                        <mxPoint x="309.9999999999998" y="280" as="targetPoint"/>
                    </mxGeometry>
                </mxCell>
                <mxCell id="62" value="retrieveData" style="edgeLabel;html=1;align=center;verticalAlign=middle;resizable=0;points=[];fontFamily=Comic Sans MS;fontColor=default;" parent="57" vertex="1" connectable="0">
                    <mxGeometry x="-0.5949" y="-5" relative="1" as="geometry">
                        <mxPoint x="5" y="39" as="offset"/>
                    </mxGeometry>
                </mxCell>
                <mxCell id="77" value="" style="edgeStyle=orthogonalEdgeStyle;curved=1;sketch=1;html=1;shadow=1;fontFamily=Comic Sans MS;fontColor=default;startArrow=none;startFill=0;endArrow=classic;endFill=1;" parent="1" source="52" target="76" edge="1">
                    <mxGeometry relative="1" as="geometry"/>
                </mxCell>
                <mxCell id="78" value="consolidates results" style="edgeLabel;html=1;align=center;verticalAlign=middle;resizable=0;points=[];fontFamily=Comic Sans MS;fontColor=default;" parent="77" vertex="1" connectable="0">
                    <mxGeometry x="-0.2123" y="-6" relative="1" as="geometry">
                        <mxPoint x="28" y="-16" as="offset"/>
                    </mxGeometry>
                </mxCell>
                <mxCell id="52" value="HealthCheckRegistry" style="whiteSpace=wrap;html=1;shadow=1;sketch=1;rounded=0;glass=0;fontFamily=Comic Sans MS;" parent="1" vertex="1">
                    <mxGeometry x="420" y="180" width="160" height="40" as="geometry"/>
                </mxCell>
                <mxCell id="58" value="" style="edgeStyle=orthogonalEdgeStyle;sketch=1;html=1;shadow=1;fontFamily=Comic Sans MS;fontColor=default;curved=1;entryX=0.75;entryY=0;entryDx=0;entryDy=0;exitX=0.25;exitY=1;exitDx=0;exitDy=0;" parent="1" source="52" target="48" edge="1">
                    <mxGeometry relative="1" as="geometry">
                        <mxPoint x="319.9999999999998" y="210" as="sourcePoint"/>
                        <mxPoint x="430.0000000000002" y="404" as="targetPoint"/>
                    </mxGeometry>
                </mxCell>
                <mxCell id="61" value="retrieveData" style="edgeLabel;html=1;align=center;verticalAlign=middle;resizable=0;points=[];fontFamily=Comic Sans MS;fontColor=default;" parent="58" vertex="1" connectable="0">
                    <mxGeometry x="0.2069" y="21" relative="1" as="geometry">
                        <mxPoint y="-1" as="offset"/>
                    </mxGeometry>
                </mxCell>
                <mxCell id="59" value="" style="edgeStyle=orthogonalEdgeStyle;sketch=1;html=1;shadow=1;fontFamily=Comic Sans MS;fontColor=default;curved=1;exitX=0;exitY=1;exitDx=0;exitDy=0;entryX=0.75;entryY=0;entryDx=0;entryDy=0;" parent="1" source="52" target="47" edge="1">
                    <mxGeometry relative="1" as="geometry">
                        <mxPoint x="310" y="200" as="sourcePoint"/>
                        <mxPoint x="302" y="372" as="targetPoint"/>
                    </mxGeometry>
                </mxCell>
                <mxCell id="60" value="retrieveData" style="edgeLabel;html=1;align=center;verticalAlign=middle;resizable=0;points=[];fontFamily=Comic Sans MS;fontColor=default;" parent="59" vertex="1" connectable="0">
                    <mxGeometry x="0.5219" y="25" relative="1" as="geometry">
                        <mxPoint x="52" y="-35" as="offset"/>
                    </mxGeometry>
                </mxCell>
                <mxCell id="65" value="creates" style="edgeStyle=orthogonalEdgeStyle;curved=1;sketch=1;html=1;shadow=1;fontFamily=Comic Sans MS;fontColor=default;endArrow=classic;endFill=1;startArrow=none;startFill=0;" parent="1" source="63" target="52" edge="1">
                    <mxGeometry x="-0.4839" y="10" relative="1" as="geometry">
                        <mxPoint as="offset"/>
                    </mxGeometry>
                </mxCell>
                <mxCell id="74" value="" style="edgeStyle=orthogonalEdgeStyle;curved=1;sketch=1;html=1;shadow=1;fontFamily=Comic Sans MS;fontColor=default;startArrow=none;startFill=0;endArrow=classic;endFill=1;exitX=0.25;exitY=1;exitDx=0;exitDy=0;" parent="1" source="63" target="70" edge="1">
                    <mxGeometry relative="1" as="geometry"/>
                </mxCell>
                <mxCell id="75" value="creates" style="edgeLabel;html=1;align=center;verticalAlign=middle;resizable=0;points=[];fontFamily=Comic Sans MS;fontColor=default;" parent="74" vertex="1" connectable="0">
                    <mxGeometry x="-0.0762" relative="1" as="geometry">
                        <mxPoint as="offset"/>
                    </mxGeometry>
                </mxCell>
                <mxCell id="63" value="NeonBee" style="whiteSpace=wrap;html=1;fontFamily=Comic Sans MS;shadow=1;sketch=1;rounded=0;glass=0;" parent="1" vertex="1">
                    <mxGeometry x="50" y="180" width="120" height="40" as="geometry"/>
                </mxCell>
                <mxCell id="68" value="" style="edgeStyle=orthogonalEdgeStyle;curved=1;sketch=1;html=1;shadow=1;fontFamily=Comic Sans MS;fontColor=default;startArrow=none;startFill=0;endArrow=classic;endFill=1;exitX=0;exitY=0.5;exitDx=0;exitDy=0;" parent="1" source="48" edge="1">
                    <mxGeometry relative="1" as="geometry">
                        <mxPoint x="170" y="360" as="sourcePoint"/>
                        <mxPoint x="120" y="420" as="targetPoint"/>
                    </mxGeometry>
                </mxCell>
                <mxCell id="72" value="registers" style="edgeLabel;html=1;align=center;verticalAlign=middle;resizable=0;points=[];fontFamily=Comic Sans MS;fontColor=default;" parent="68" vertex="1" connectable="0">
                    <mxGeometry x="-0.3859" y="-9" relative="1" as="geometry">
                        <mxPoint x="-13" y="-1" as="offset"/>
                    </mxGeometry>
                </mxCell>
                <mxCell id="69" value="" style="edgeStyle=orthogonalEdgeStyle;curved=1;sketch=1;html=1;shadow=1;fontFamily=Comic Sans MS;fontColor=default;startArrow=none;startFill=0;endArrow=classic;endFill=1;exitX=0;exitY=0.5;exitDx=0;exitDy=0;entryX=1;entryY=0.75;entryDx=0;entryDy=0;" parent="1" source="49" target="70" edge="1">
                    <mxGeometry relative="1" as="geometry">
                        <mxPoint x="262" y="420" as="sourcePoint"/>
                        <mxPoint x="110" y="390" as="targetPoint"/>
                    </mxGeometry>
                </mxCell>
                <mxCell id="71" value="registers" style="edgeLabel;html=1;align=center;verticalAlign=middle;resizable=0;points=[];fontFamily=Comic Sans MS;fontColor=default;" parent="69" vertex="1" connectable="0">
                    <mxGeometry x="-0.2689" y="-14" relative="1" as="geometry">
                        <mxPoint as="offset"/>
                    </mxGeometry>
                </mxCell>
                <mxCell id="70" value="shared map" style="whiteSpace=wrap;html=1;rounded=1;shadow=1;glass=0;sketch=1;fontFamily=Comic Sans MS;fontColor=default;" parent="1" vertex="1">
                    <mxGeometry x="40" y="410" width="80" height="40" as="geometry"/>
                </mxCell>
                <mxCell id="76" value="{&lt;br&gt;&amp;nbsp; &quot;status&quot;: &quot;UP&quot;&lt;br&gt;&amp;nbsp; &quot;checks&quot;: [{&lt;br&gt;&amp;nbsp; &amp;nbsp; &quot;id&quot;: &quot;node.1.memory&quot;,&lt;br&gt;&amp;nbsp; &amp;nbsp; &quot;status&quot;: &quot;UP&quot;&lt;br&gt;&amp;nbsp; },&lt;br&gt;&amp;nbsp; {&lt;br&gt;&amp;nbsp; &amp;nbsp; &quot;id&quot;: &quot;node.2.memory&quot;,&lt;br&gt;&amp;nbsp; &amp;nbsp; &quot;status&quot;: &quot;UP&quot;&lt;br&gt;&amp;nbsp; },&lt;br&gt;&amp;nbsp; {&lt;br&gt;&amp;nbsp; &amp;nbsp; &quot;id&quot;: &quot;node.3.memory&quot;,&lt;br&gt;&amp;nbsp; &amp;nbsp; &quot;status&quot;: &quot;UP&quot;&lt;br&gt;&amp;nbsp; },&lt;br&gt;&amp;nbsp; {&lt;br&gt;&amp;nbsp; &amp;nbsp; &quot;id&quot;: &quot;cluster&quot;,&lt;br&gt;&amp;nbsp; &amp;nbsp; &quot;status&quot;: &quot;UP&quot;&lt;br&gt;&amp;nbsp; }]&lt;br&gt;}" style="shape=document;whiteSpace=wrap;html=1;boundedLbl=1;fontFamily=Comic Sans MS;shadow=1;sketch=1;rounded=0;glass=0;align=left;size=0.03571428571428571;" parent="1" vertex="1">
                    <mxGeometry x="610" y="230" width="160" height="290" as="geometry"/>
                </mxCell>
                <mxCell id="80" value="node 1" style="text;html=1;align=center;verticalAlign=middle;resizable=0;points=[];autosize=1;strokeColor=none;fillColor=none;fontFamily=Comic Sans MS;fontColor=default;" parent="1" vertex="1">
                    <mxGeometry x="530" y="360" width="50" height="20" as="geometry"/>
                </mxCell>
                <mxCell id="81" value="MemoryHealthCheck (type: node)" style="whiteSpace=wrap;html=1;shadow=1;sketch=1;rounded=0;glass=0;fontFamily=Comic Sans MS;" parent="1" vertex="1">
                    <mxGeometry x="130" y="110" width="120" height="40" as="geometry"/>
                </mxCell>
                <mxCell id="83" value="registers" style="edgeStyle=orthogonalEdgeStyle;curved=1;sketch=1;html=1;shadow=1;fontFamily=Comic Sans MS;fontColor=default;endArrow=classic;endFill=1;startArrow=none;startFill=0;exitX=1;exitY=0.5;exitDx=0;exitDy=0;entryX=0;entryY=0;entryDx=0;entryDy=0;" parent="1" source="81" target="52" edge="1">
                    <mxGeometry x="-0.4839" y="10" relative="1" as="geometry">
                        <mxPoint x="340" y="140" as="sourcePoint"/>
                        <mxPoint x="590.0000000000002" y="140" as="targetPoint"/>
                        <mxPoint as="offset"/>
                    </mxGeometry>
                </mxCell>
                <mxCell id="90" value="" style="edgeStyle=orthogonalEdgeStyle;curved=1;sketch=1;html=1;shadow=1;fontFamily=Comic Sans MS;fontColor=default;startArrow=none;startFill=0;endArrow=classic;endFill=1;" parent="1" source="89" edge="1">
                    <mxGeometry relative="1" as="geometry">
                        <mxPoint x="427" y="180" as="targetPoint"/>
                    </mxGeometry>
                </mxCell>
                <mxCell id="91" value="registers" style="edgeLabel;html=1;align=center;verticalAlign=middle;resizable=0;points=[];fontFamily=Comic Sans MS;fontColor=default;" parent="90" vertex="1" connectable="0">
                    <mxGeometry x="-0.6683" y="-7" relative="1" as="geometry">
                        <mxPoint y="-20" as="offset"/>
                    </mxGeometry>
                </mxCell>
                <mxCell id="89" value="ClusterHealthCheck (type: global)" style="whiteSpace=wrap;html=1;shadow=1;sketch=1;rounded=0;glass=0;fontFamily=Comic Sans MS;" parent="1" vertex="1">
                    <mxGeometry x="160" y="60" width="120" height="40" as="geometry"/>
                </mxCell>
            </root>
        </mxGraphModel>
    </diagram>
</mxfile>